<svg xmlns="http://www.w3.org/2000/svg" xmlns:xlink="http://www.w3.org/1999/xlink" width="96" height="96" viewBox="0 0 96 96"><g id="surface45050869"><path style="stroke:none;fill-rule:nonzero;fill:#2ecc71;fill-opacity:1" d="M 47.992188 9 C 42.675781 9 16.605469 23.953125 13.972656 28.511719 C 11.339844 33.074219 11.339844 62.949219 13.972656 67.496094 C 16.617188 72.050781 42.6875 87 47.992188 87 C 53.285156 87 79.355469 72.058594 82.007812 67.507812 C 84.667969 62.941406 84.667969 33.042969 82.007812 28.496094 L 82.007812 28.488281 C 79.335938 23.9375 53.269531 9 47.992188 9 Z M 47.988281 15.035156 C 53.078125 16.09375 73.253906 27.648438 76.789062 31.527344 C 78.40625 36.453125 78.402344 59.53125 76.789062 64.464844 C 73.277344 68.335938 53.085938 79.910156 47.988281 80.964844 C 42.894531 79.914062 22.71875 68.351562 19.203125 64.472656 C 17.597656 59.527344 17.597656 36.46875 19.203125 31.527344 C 22.707031 27.648438 42.890625 16.085938 47.988281 15.035156 Z M 39 27 L 33 33 L 36 33 L 36 63 L 42 63 L 42 51 L 54 51 L 54 63 L 51 63 L 57 69 L 63 63 L 60 63 L 60 36 L 54 36 L 54 45 L 42 45 L 42 33 L 45 33 Z M 39 27"/></g></svg>